<svg width="24" height="25" viewBox="0 0 24 25" fill="none" xmlns="http://www.w3.org/2000/svg">
<path d="M19.6688 5.78111C19.6613 5.76986 19.6538 5.75861 19.6388 5.75486C18.21 5.09861 16.6988 4.62986 15.15 4.36361C15.135 4.35986 15.12 4.36361 15.1088 4.36736C15.0975 4.37111 15.0863 4.38236 15.0788 4.39736C14.8725 4.76861 14.685 5.15486 14.52 5.54486C12.8475 5.28986 11.1488 5.28986 9.48004 5.54486C9.31129 5.15111 9.12379 4.76861 8.91379 4.39736C8.90629 4.38611 8.89504 4.37486 8.88379 4.36736C8.87254 4.35986 8.85754 4.35986 8.84254 4.35986C7.29379 4.62611 5.78254 5.09486 4.35379 5.75111C4.34254 5.75486 4.33129 5.76611 4.32379 5.77736C1.46629 10.0449 0.682535 14.2111 1.06504 18.3211C1.06504 18.3324 1.06879 18.3399 1.07254 18.3511C1.07629 18.3624 1.08379 18.3661 1.09129 18.3736C2.75629 19.6074 4.61629 20.5486 6.59629 21.1561C6.61129 21.1599 6.62629 21.1599 6.63754 21.1561C6.64879 21.1524 6.66379 21.1411 6.67129 21.1299C7.09504 20.5524 7.47379 19.9374 7.79629 19.2999C7.80004 19.2924 7.80379 19.2811 7.80379 19.2699C7.80379 19.2586 7.80379 19.2511 7.80004 19.2399C7.79629 19.2286 7.79254 19.2211 7.78504 19.2174C7.77754 19.2136 7.77004 19.2061 7.75879 19.2024C7.16629 18.9736 6.58879 18.6999 6.03754 18.3811C6.02629 18.3736 6.01879 18.3661 6.01129 18.3586C6.00379 18.3511 6.00004 18.3361 6.00004 18.3249C6.00004 18.3136 6.00004 18.3024 6.00754 18.2911C6.01504 18.2799 6.01879 18.2724 6.03004 18.2649C6.14629 18.1786 6.26254 18.0886 6.37129 17.9986C6.38254 17.9911 6.39379 17.9836 6.40504 17.9836C6.41629 17.9836 6.43129 17.9836 6.44254 17.9874C10.05 19.6336 13.9575 19.6336 17.5238 17.9874C17.535 17.9836 17.55 17.9799 17.5613 17.9799C17.5725 17.9799 17.5875 17.9874 17.595 17.9949C17.7038 18.0849 17.82 18.1786 17.9363 18.2649C17.9438 18.2724 17.9513 18.2799 17.9588 18.2911C17.9663 18.3024 17.9663 18.3136 17.9663 18.3249C17.9663 18.3361 17.9625 18.3474 17.955 18.3586C17.9475 18.3699 17.94 18.3774 17.9325 18.3811C17.3813 18.7036 16.8075 18.9774 16.2113 19.1986C16.2038 19.2024 16.1925 19.2061 16.185 19.2136C16.1775 19.2211 16.1738 19.2286 16.17 19.2399C16.1663 19.2511 16.1663 19.2586 16.1663 19.2699C16.1663 19.2811 16.17 19.2886 16.1738 19.2999C16.5038 19.9374 16.8788 20.5486 17.2988 21.1299C17.3063 21.1411 17.3213 21.1524 17.3325 21.1561C17.3438 21.1599 17.3625 21.1599 17.3738 21.1561C19.3575 20.5486 21.2213 19.6074 22.89 18.3736C22.8975 18.3661 22.905 18.3586 22.9088 18.3511C22.9125 18.3436 22.9163 18.3324 22.9163 18.3211C23.3775 13.5661 22.1475 9.43736 19.6575 5.77736L19.6688 5.78111ZM8.34379 15.8199C7.25629 15.8199 6.36379 14.8224 6.36379 13.5999C6.36379 12.3774 7.24129 11.3799 8.34379 11.3799C9.45754 11.3799 10.3425 12.3849 10.3238 13.5999C10.3238 14.8261 9.44629 15.8199 8.34379 15.8199ZM15.6713 15.8199C14.5838 15.8199 13.6913 14.8224 13.6913 13.5999C13.6913 12.3774 14.5688 11.3799 15.6713 11.3799C16.785 11.3799 17.67 12.3849 17.6513 13.5999C17.6513 14.8261 16.7813 15.8199 15.6713 15.8199Z" fill="#CCCCCC"/>
</svg>
