<?xml version="1.0" encoding="UTF-8" standalone="no"?><!DOCTYPE svg PUBLIC "-//W3C//DTD SVG 1.1//EN" "http://www.w3.org/Graphics/SVG/1.1/DTD/svg11.dtd"><svg width="100%" height="100%" viewBox="0 0 8000 2788" version="1.1" xmlns="http://www.w3.org/2000/svg" xmlns:xlink="http://www.w3.org/1999/xlink" xml:space="preserve" xmlns:serif="http://www.serif.com/" style="fill-rule:evenodd;clip-rule:evenodd;stroke-linejoin:round;stroke-miterlimit:2;"><rect id="yellow" x="0" y="0.661" width="8000" height="2783.33" style="fill:none;"/><path d="M5780.21,1.597l-340.708,567.033l-2283.06,-0l-0,2214.43l-593.895,0l-0,-2219.98l-337.373,-561.483l3555.04,-0Z" style="fill:#fdc42f;"/><path d="M3648.14,2782.91c-52.207,0 -102.277,-20.739 -139.194,-57.656c-36.916,-36.917 -57.656,-86.986 -57.656,-139.194c0,-370.472 0,-1167.29 0,-1537.76c0,-52.208 20.74,-102.277 57.656,-139.194c36.917,-36.916 86.986,-57.656 139.194,-57.656c379.394,0 1207.81,0 1587.2,0c52.208,0 102.278,20.74 139.195,57.656c36.916,36.917 57.656,86.986 57.656,139.194l-0,1537.76c-0,52.208 -20.74,102.277 -57.656,139.194c-36.917,36.917 -86.987,57.656 -139.195,57.656c-172.888,0 -397.044,0 -397.044,0l0,-0.025l-793.113,-0l-0,0.025c-0,0 -224.156,0 -397.045,0Zm1190.16,-1364.45l-793.113,-0l-0,797.422l793.113,0l0,-797.422Z" style="fill:#fdc42f;"/><path d="M1671.26,1154.7l-978.4,1628.33l-692.857,-0c-0,-0 1421.72,-2366.14 1642.58,-2733.7c17.795,-29.616 49.816,-47.732 84.367,-47.732c74.574,-0 197.617,-0 197.617,-0l340.593,567.033l-0,2017.58c-0,52.208 -20.74,102.277 -57.656,139.194c-36.917,36.917 -86.987,57.656 -139.195,57.656c-357.1,0 -1075.11,0 -1075.11,0l340.707,-567.033l337.354,0l-0.001,-1061.32Z" style="fill:#fdc42f;"/><path d="M6328.74,1629.95l978.4,-1628.33l692.857,0c0,0 -1320.36,2197.44 -1613.9,2685.97c-35.59,59.232 -99.632,95.465 -168.733,95.465c-80.258,0 -190.701,0 -285.673,0c-108.718,0 -196.851,-88.133 -196.851,-196.85c0,-542.226 0,-2017.58 0,-2017.58l340.593,-567.033c-0,-0 83.703,-0 154.877,-0c54.358,-0 98.425,44.066 98.425,98.425c-0,352.337 0.001,1529.93 0.001,1529.93Z" style="fill:#fdc42f;"/></svg>
