<?xml version="1.0" encoding="UTF-8" standalone="no"?><!DOCTYPE svg PUBLIC "-//W3C//DTD SVG 1.1//EN" "http://www.w3.org/Graphics/SVG/1.1/DTD/svg11.dtd"><svg width="100%" height="100%" viewBox="0 0 8000 1375" version="1.1" xmlns="http://www.w3.org/2000/svg" xmlns:xlink="http://www.w3.org/1999/xlink" xml:space="preserve" xmlns:serif="http://www.serif.com/" style="fill-rule:evenodd;clip-rule:evenodd;stroke-linejoin:round;stroke-miterlimit:2;"><rect id="faderpunk-logo-RGB" serif:id="faderpunk logo RGB" x="0" y="0" width="8000" height="1375" style="fill:none;"/><path d="M1234.39,58.009l-92.586,116.236l-766.189,0c-0.544,0 -0.985,0.442 -0.985,0.986l-0,1196.33l-116.236,-128.736l-0,-1184.81l975.996,0Z" style="fill:#fdc42f;"/><path d="M1.926,694.046l83.564,-116.236l741.889,0l-82.907,116.236l-742.546,0Z" style="fill:#fdc42f;"/><path d="M1427.43,963.342c-0,-0.544 -0.441,-0.985 -0.986,-0.985l-615.536,0l-46.09,-94.314l674.445,-866.004l104.403,35.859l-0,1204.32l-116.236,0l-0,-278.875Zm-0.986,-117.221c0.545,-0 0.986,-0.441 0.986,-0.985l-0,-635.861c-0,-0.421 -0.267,-0.795 -0.665,-0.932c-0.399,-0.136 -0.839,-0.005 -1.098,0.327l-495.209,635.86c-0.231,0.297 -0.273,0.7 -0.108,1.038c0.165,0.338 0.509,0.553 0.885,0.553l495.209,-0Z" style="fill:#fdc42f;"/><path d="M2060.89,175.443l-0.269,-0.212l-0.985,-0c-0,-0.545 0.441,-0.986 0.985,-0.986l-384.397,0l0,-116.236l425.099,0l255.276,201.578l-0,775.51l-262.295,207.12l-418.08,0l0,-116.236l377.378,-0c0.222,-0 0.437,-0.075 0.611,-0.212l185.775,-146.697c0.237,-0.187 0.375,-0.472 0.375,-0.773l-0.001,-661.914c0,-0.302 -0.138,-0.587 -0.374,-0.774l-173.751,-137.201l-5.005,-3.952l-0.342,0.985Z" style="fill:#fdc42f;"/><path d="M6177.97,995.071l0.986,-0.985l-0,-936.077l116.236,0l-0,996.035l-260.705,188.173l-240.61,0l-267.854,-193.334l0,-280.831l116.236,-71.26l0,129.811l0,162.323c0,0.316 0.152,0.613 0.409,0.798l188.518,136.071c0.168,0.121 0.37,0.186 0.577,0.186l164.839,0c0.207,0 0.408,-0.065 0.576,-0.186l176.291,-127.245l5.078,-3.665l-0.577,0.186Z" style="fill:#ae348b;"/><path d="M3355.41,174.245l0,-116.236l546.829,0l259.598,201.257l0,246.092l-266.748,206.799l-422.457,0c-0.545,0 -0.986,0.441 -0.986,0.986l0,538.217l-116.236,-0l0,-655.439l499.563,0c0.218,0 0.431,-0.073 0.603,-0.207l189.643,-147.023c0.241,-0.186 0.382,-0.474 0.382,-0.779l-0,-131.201c-0,-0.305 -0.141,-0.592 -0.382,-0.779l-182.493,-141.48c-0.173,-0.134 -0.385,-0.207 -0.604,-0.207l-506.712,0Z" style="fill:#fdc42f;"/><path d="M4335.06,172.955l95.839,-116.237l932.043,0.001l279.318,1.628l0,476.101l-269.832,170.291l-220.786,0c-0.544,0 -0.985,0.442 -0.985,0.986l-0,536.492l-116.236,0l-0,-653.714l304.111,0c0.186,0 0.369,-0.052 0.526,-0.152l186.507,-117.704c0.286,-0.181 0.459,-0.496 0.459,-0.834l0,-294.926c0,-0.542 -0.438,-0.982 -0.979,-0.985l-162.442,-0.947l-1027.54,-0Z" style="fill:#ae348b;"/><path d="M2808.27,654.849c0.175,-0.122 0.311,-0.301 0.379,-0.515c0.128,-0.411 -0.025,-0.858 -0.379,-1.104l-344.272,-239.119l-8.765,-88.637l258.839,-268.756l510.973,0.001l0,116.236l-461.123,-0c-0.268,-0 -0.524,0.109 -0.71,0.302l-176.449,183.209c-0.2,0.208 -0.299,0.494 -0.271,0.781c0.028,0.287 0.181,0.547 0.418,0.712l357.136,248.052l-0,96.056l-357.136,248.052c-0.237,0.165 -0.39,0.425 -0.418,0.713c-0.028,0.287 0.071,0.572 0.271,0.78l176.449,183.21c0.186,0.193 0.442,0.302 0.71,0.302l461.123,-0l0,116.236l-510.973,-0l-258.839,-268.756l8.765,-88.637l334.622,-232.416l9.65,-6.702Z" style="fill:#fdc42f;"/><path d="M3365.14,691.28l69.674,-93.039l704.454,527.543c0.171,0.128 0.378,0.197 0.591,0.197l708.739,-0l-74.555,116.236l-673.211,0l-735.692,-550.937Z" style="fill:#fdc42f;"/><path d="M3355.41,58.009l116.236,0l0,345.031l-116.236,0l0,-345.031Z" style="fill:#fdc42f;"/><path d="M7132.8,1242.22l0,-1184.21l116.236,0l0,1184.21l-116.236,0Z" style="fill:#ae348b;"/><path d="M6389.77,188.874l628.653,832.22l2.6,219.486l-631.253,-835.745l-0,-215.961Z" style="fill:#ae348b;"/><path d="M7687.38,575.077c-0.183,0.305 -0.189,0.684 -0.014,0.994c0.175,0.309 0.502,0.5 0.858,0.5l290.51,0l0,666.252l-116.236,128.736l0,-677.766c0,-0.544 -0.441,-0.985 -0.985,-0.985l-644.109,-0l-0.001,-116.237l332.79,0c0.345,0 0.666,-0.18 0.844,-0.476l312.378,-518.092l136.578,-1.408l-312.613,518.482Z" style="fill:#ae348b;"/><path d="M4536.28,966.241l-202.326,0l0,-660.625l202.326,-0l-0,116.236l-85.104,-0c-0.544,-0 -0.985,0.441 -0.985,0.985l-0,426.183c-0,0.544 0.441,0.985 0.985,0.985l85.104,-0l-0,116.236Zm110.811,-660.625l202.326,-0l-0,660.625l-202.326,0l0,-116.236l85.104,-0c0.544,-0 0.985,-0.441 0.985,-0.985l0,-426.183c0,-0.544 -0.441,-0.985 -0.985,-0.985l-85.104,-0l0,-116.236Z" style="fill:#4cafb1;"/></svg>
