<svg width="59" height="58" viewBox="0 0 59 58" fill="none" xmlns="http://www.w3.org/2000/svg">
<path d="M29.292 50.164C33.1094 50.164 36.204 47.7929 36.204 44.868C36.204 41.9431 33.1094 39.572 29.292 39.572C25.4746 39.572 22.38 41.9431 22.38 44.868C22.38 47.7929 25.4746 50.164 29.292 50.164Z" fill="#1D1D1B"/>
<path d="M29.292 37.724C33.1094 37.724 36.204 35.3529 36.204 32.428C36.204 29.5031 33.1094 27.132 29.292 27.132C25.4746 27.132 22.38 29.5031 22.38 32.428C22.38 35.3529 25.4746 37.724 29.292 37.724Z" fill="#1D1D1B"/>
<path d="M29.292 25.314C33.1094 25.314 36.204 22.9429 36.204 20.018C36.204 17.0931 33.1094 14.722 29.292 14.722C25.4746 14.722 22.38 17.0931 22.38 20.018C22.38 22.9429 25.4746 25.314 29.292 25.314Z" fill="#1D1D1B"/>
<path d="M34.17 44.868V7.258" stroke="#1D1D1B" stroke-width="4" stroke-miterlimit="1.5" stroke-linejoin="round"/>
</svg>
