<svg width="24" height="25" viewBox="0 0 24 25" fill="none" xmlns="http://www.w3.org/2000/svg">
<path d="M8.92144 18.0664C8.92144 18.1414 8.8352 18.2014 8.72644 18.2014C8.60269 18.2126 8.51645 18.1526 8.51645 18.0664C8.51645 17.9914 8.60269 17.9314 8.71144 17.9314C8.82395 17.9201 8.92144 17.9801 8.92144 18.0664ZM7.7552 17.8976C7.72895 17.9726 7.80395 18.0589 7.91645 18.0814C8.01395 18.1189 8.12645 18.0814 8.14895 18.0064C8.17144 17.9314 8.10019 17.8451 7.9877 17.8114C7.89019 17.7851 7.78145 17.8226 7.7552 17.8976ZM9.41269 17.8339C9.30395 17.8601 9.22894 17.9314 9.24019 18.0176C9.25144 18.0926 9.34895 18.1414 9.46144 18.1151C9.5702 18.0889 9.64519 18.0176 9.63394 17.9426C9.62269 17.8714 9.52144 17.8226 9.41269 17.8339ZM11.8802 3.46387C6.67894 3.46387 2.7002 7.41262 2.7002 12.6139C2.7002 16.7726 5.3177 20.3314 9.05645 21.5839C9.53645 21.6701 9.70519 21.3739 9.70519 21.1301C9.70519 20.8976 9.69394 19.6151 9.69394 18.8276C9.69394 18.8276 7.06894 19.3901 6.5177 17.7101C6.5177 17.7101 6.0902 16.6189 5.4752 16.3376C5.4752 16.3376 4.61645 15.7489 5.5352 15.7601C5.5352 15.7601 6.46895 15.8351 6.9827 16.7276C7.80395 18.1751 9.1802 17.7589 9.71644 17.5114C9.8027 16.9114 10.0464 16.4951 10.3164 16.2476C8.2202 16.0151 6.1052 15.7114 6.1052 12.1039C6.1052 11.0726 6.39019 10.5551 6.99019 9.89512C6.89269 9.65137 6.57395 8.64637 7.0877 7.34887C7.87145 7.10512 9.67519 8.36137 9.67519 8.36137C10.4252 8.15137 11.2314 8.04262 12.0302 8.04262C12.8289 8.04262 13.6352 8.15137 14.3852 8.36137C14.3852 8.36137 16.1889 7.10137 16.9727 7.34887C17.4864 8.65012 17.1677 9.65137 17.0702 9.89512C17.6702 10.5589 18.0377 11.0764 18.0377 12.1039C18.0377 15.7226 15.8289 16.0114 13.7327 16.2476C14.0777 16.5439 14.3702 17.1064 14.3702 17.9876C14.3702 19.2514 14.3589 20.8151 14.3589 21.1226C14.3589 21.3664 14.5314 21.6626 15.0077 21.5764C18.7577 20.3314 21.3002 16.7726 21.3002 12.6139C21.3002 7.41262 17.0814 3.46387 11.8802 3.46387ZM6.3452 16.3976C6.29644 16.4351 6.30769 16.5214 6.37144 16.5926C6.43144 16.6526 6.5177 16.6789 6.56645 16.6301C6.6152 16.5926 6.60394 16.5064 6.54019 16.4351C6.48019 16.3751 6.39394 16.3489 6.3452 16.3976ZM5.94019 16.0939C5.91394 16.1426 5.95145 16.2026 6.02644 16.2401C6.08645 16.2776 6.16145 16.2664 6.1877 16.2139C6.21395 16.1651 6.17645 16.1051 6.10144 16.0676C6.02644 16.0451 5.96644 16.0564 5.94019 16.0939ZM7.1552 17.4289C7.0952 17.4776 7.1177 17.5901 7.20395 17.6614C7.2902 17.7476 7.39895 17.7589 7.4477 17.6989C7.49645 17.6501 7.47395 17.5376 7.39895 17.4664C7.31645 17.3801 7.20395 17.3689 7.1552 17.4289ZM6.72769 16.8776C6.66769 16.9151 6.66769 17.0126 6.72769 17.0989C6.78769 17.1851 6.88895 17.2226 6.9377 17.1851C6.99769 17.1364 6.99769 17.0389 6.9377 16.9526C6.8852 16.8664 6.78769 16.8289 6.72769 16.8776Z" fill="#CCCCCC"/>
</svg>
