<svg width="59" height="58" viewBox="0 0 59 58" fill="none" xmlns="http://www.w3.org/2000/svg">
<path d="M12.806 38.16C17.0243 38.16 20.444 35.5409 20.444 32.31C20.444 29.0791 17.0243 26.46 12.806 26.46C8.58765 26.46 5.168 29.0791 5.168 32.31C5.168 35.5409 8.58765 38.16 12.806 38.16Z" fill="#1D1D1B"/>
<path d="M44.926 34.562C49.1443 34.562 52.564 31.9429 52.564 28.712C52.564 25.4811 49.1443 22.862 44.926 22.862C40.7076 22.862 37.288 25.4811 37.288 28.712C37.288 31.9429 40.7076 34.562 44.926 34.562Z" fill="#1D1D1B"/>
<path d="M25.986 22.712L31.986 28.712L25.986 34.712" stroke="#1D1D1B" stroke-width="4" stroke-miterlimit="10"/>
<path d="M22.334 28.712H31.986" stroke="#1D1D1B" stroke-width="4" stroke-miterlimit="1.5" stroke-linejoin="round"/>
<path d="M38.314 17.342H52.564" stroke="#1D1D1B" stroke-width="4" stroke-miterlimit="1.5" stroke-linejoin="round"/>
<path d="M38.314 40.258H52.564" stroke="#1D1D1B" stroke-width="4" stroke-miterlimit="1.5" stroke-linejoin="round"/>
</svg>
