<svg width="20" height="20" viewBox="0 0 20 20" fill="none" xmlns="http://www.w3.org/2000/svg">
<path d="M5.72178 4.29365C5.33115 3.90303 4.69678 3.90303 4.30615 4.29365C3.91553 4.68428 3.91553 5.31865 4.30615 5.70928L8.5999 9.9999L4.30928 14.2937C3.91865 14.6843 3.91865 15.3187 4.30928 15.7093C4.6999 16.0999 5.33428 16.0999 5.7249 15.7093L10.0155 11.4155L14.3093 15.7062C14.6999 16.0968 15.3343 16.0968 15.7249 15.7062C16.1155 15.3155 16.1155 14.6812 15.7249 14.2905L11.4312 9.9999L15.7218 5.70615C16.1124 5.31553 16.1124 4.68115 15.7218 4.29053C15.3312 3.8999 14.6968 3.8999 14.3062 4.29053L10.0155 8.58428L5.72178 4.29365Z" fill="white"/>
</svg>
