<svg width="59" height="58" viewBox="0 0 59 58" fill="none" xmlns="http://www.w3.org/2000/svg">
<path d="M35.6406 45.1406C35.6403 48.7707 32.6926 51.7185 29.0625 51.7188C25.431 51.7188 22.4867 48.7698 22.4863 45.1406V34.3135H26.4863V45.1406C26.4867 46.5629 27.6424 47.7188 29.0625 47.7188C30.4835 47.7185 31.6403 46.5616 31.6406 45.1406V34.3135H35.6406V45.1406ZM29.0625 5.02148C32.6917 5.02174 35.6406 7.96708 35.6406 11.5986V16.9199H31.6406V11.5986C31.6406 10.1785 30.4848 9.02272 29.0625 9.02246C27.6411 9.02246 26.4863 10.1772 26.4863 11.5986V16.9199H22.4863V11.5986C22.4863 7.96806 25.4319 5.02148 29.0625 5.02148Z" fill="#1D1D1B"/>
<path d="M41.812 18.92H16.314V32.314H41.812V18.92Z" stroke="#1D1D1B" stroke-width="4" stroke-miterlimit="1.5"/>
<path d="M24.486 25.618H33.64" stroke="#1D1D1B" stroke-width="4" stroke-miterlimit="1.5" stroke-linecap="round" stroke-linejoin="round"/>
</svg>
