<svg width="59" height="58" viewBox="0 0 59 58" fill="none" xmlns="http://www.w3.org/2000/svg">
<path d="M28.916 13.386C31.0533 13.386 32.786 11.6533 32.786 9.516C32.786 7.37865 31.0533 5.646 28.916 5.646C26.7786 5.646 25.046 7.37865 25.046 9.516C25.046 11.6533 26.7786 13.386 28.916 13.386Z" fill="#1D1D1B"/>
<path fill-rule="evenodd" clip-rule="evenodd" d="M46.658 14.144C47.998 15.808 47.732 18.246 46.068 19.584C44.404 20.924 41.966 20.658 40.628 18.994C39.29 17.33 39.554 14.892 41.218 13.554C42.882 12.216 45.32 12.48 46.658 14.144Z" fill="#1D1D1B"/>
<path fill-rule="evenodd" clip-rule="evenodd" d="M6.678 33.296C7.136 35.382 9.202 36.704 11.288 36.246C13.374 35.788 14.696 33.722 14.238 31.636C13.78 29.55 11.714 28.228 9.628 28.686C7.542 29.144 6.22 31.21 6.678 33.296Z" fill="#1D1D1B"/>
<path d="M9.65897 20.2988C9.9091 20.6022 10.1933 20.8855 10.5115 21.1416V21.1425C11.303 21.7797 12.2101 22.1774 13.1443 22.3457C9.99747 30.5038 13.6285 39.8499 21.6521 43.6728C24.8236 45.1825 28.2316 45.614 31.4627 45.1171C31.4262 46.0668 31.6211 47.0387 32.074 47.9492L32.073 47.9501C32.2544 48.3151 32.4688 48.653 32.7107 48.9619C28.5258 49.7395 24.0669 49.2524 19.9324 47.2841H19.9314C9.80733 42.4605 5.34016 30.5298 9.65897 20.2988ZM43.5291 36.9003C44.2459 37.5238 45.1244 37.9822 46.117 38.2001C46.5161 38.2877 46.9151 38.3311 47.3084 38.3359C46.1669 40.4557 44.7027 42.3039 43.0076 43.8496C42.9075 43.4689 42.7676 43.0927 42.5857 42.7265H42.5847C42.1324 41.8156 41.4748 41.0745 40.6961 40.5302C41.7816 39.4757 42.7401 38.2619 43.5291 36.9003ZM16.864 11.3437C22.8354 7.13875 30.8423 6.1862 37.9021 9.54878C44.9903 12.9246 49.3043 19.784 49.7722 27.1054C49.4139 26.9456 49.0336 26.8198 48.6355 26.7324C47.6419 26.5142 46.651 26.5626 45.7381 26.8291C45.1912 21.1088 41.7417 15.8081 36.1814 13.1601C30.6456 10.5235 24.3869 11.1678 19.6092 14.3115C19.2447 13.4342 18.6618 12.633 17.8699 11.996C17.5516 11.7401 17.214 11.523 16.864 11.3437Z" fill="#1D1D1B"/>
<path fill-rule="evenodd" clip-rule="evenodd" d="M11.176 14.144C9.83601 15.808 10.102 18.246 11.766 19.584C13.43 20.924 15.868 20.658 17.206 18.994C18.544 17.33 18.28 14.892 16.616 13.554C14.952 12.216 12.514 12.48 11.176 14.144Z" stroke="#1D1D1B" stroke-width="4" stroke-miterlimit="1.5"/>
<path fill-rule="evenodd" clip-rule="evenodd" d="M51.156 33.296C50.698 35.382 48.632 36.704 46.546 36.246C44.46 35.788 43.138 33.722 43.596 31.636C44.054 29.55 46.12 28.228 48.206 28.686C50.292 29.144 51.614 31.21 51.156 33.296Z" stroke="#1D1D1B" stroke-width="4" stroke-miterlimit="1.5"/>
<path fill-rule="evenodd" clip-rule="evenodd" d="M39.052 48.802C37.138 49.754 34.814 48.972 33.864 47.06C32.912 45.148 33.694 42.822 35.606 41.872C37.518 40.922 39.844 41.702 40.794 43.616C41.744 45.528 40.964 47.852 39.052 48.802Z" stroke="#1D1D1B" stroke-width="4" stroke-miterlimit="1.5"/>
<path fill-rule="evenodd" clip-rule="evenodd" d="M18.782 48.802C20.696 49.754 23.02 48.972 23.97 47.06C24.92 45.148 24.14 42.822 22.228 41.872C20.316 40.922 17.99 41.702 17.04 43.616C16.09 45.528 16.87 47.852 18.782 48.802Z" fill="#1D1D1B"/>
</svg>
