<svg width="24" height="25" viewBox="0 0 24 25" fill="none" xmlns="http://www.w3.org/2000/svg">
<path d="M12.0111 8.451C9.6298 8.4435 7.6948 10.371 7.6873 12.7522C7.6798 15.1335 9.60731 17.0685 11.9886 17.076C14.3698 17.0835 16.3048 15.156 16.3123 12.7747C16.3198 10.3935 14.3923 8.4585 12.0111 8.451ZM11.9886 9.966C13.5336 9.9585 14.7898 11.2072 14.7973 12.7522C14.8048 14.2972 13.5561 15.5535 12.0111 15.561C10.4661 15.5685 9.2098 14.3197 9.2023 12.7747C9.1948 11.2297 10.4436 9.9735 11.9886 9.966ZM15.4911 8.27475C15.4911 7.71975 15.9411 7.26975 16.4961 7.26975C17.0511 7.26975 17.5011 7.71975 17.5011 8.27475C17.5011 8.82975 17.0511 9.27975 16.4961 9.27975C15.9411 9.27975 15.4911 8.82975 15.4911 8.27475ZM20.3548 9.29475C20.2911 7.9485 19.9836 6.756 18.9973 5.7735C18.0148 4.791 16.8223 4.4835 15.4761 4.416C14.0886 4.33725 9.92981 4.33725 8.5423 4.416C7.19981 4.47975 6.0073 4.78725 5.02105 5.76975C4.0348 6.75225 3.73105 7.94475 3.66355 9.291C3.5848 10.6785 3.5848 14.8372 3.66355 16.2247C3.7273 17.571 4.0348 18.7635 5.02105 19.746C6.0073 20.7285 7.19605 21.036 8.5423 21.1035C9.92981 21.1822 14.0886 21.1822 15.4761 21.1035C16.8223 21.0397 18.0148 20.7322 18.9973 19.746C19.9798 18.7635 20.2873 17.571 20.3548 16.2247C20.4336 14.8372 20.4336 10.6822 20.3548 9.29475ZM18.5623 17.7135C18.2698 18.4485 17.7036 19.0147 16.9648 19.311C15.8586 19.7497 13.2336 19.6485 12.0111 19.6485C10.7886 19.6485 8.1598 19.746 7.0573 19.311C6.3223 19.0185 5.75606 18.4522 5.45981 17.7135C5.02106 16.6072 5.12231 13.9822 5.12231 12.7597C5.12231 11.5372 5.02481 8.9085 5.45981 7.806C5.75231 7.071 6.31855 6.50475 7.0573 6.2085C8.16355 5.76975 10.7886 5.871 12.0111 5.871C13.2336 5.871 15.8623 5.7735 16.9648 6.2085C17.6998 6.501 18.2661 7.06725 18.5623 7.806C19.0011 8.91225 18.8998 11.5372 18.8998 12.7597C18.8998 13.9822 19.0011 16.611 18.5623 17.7135Z" fill="#CCCCCC"/>
</svg>
