<svg width="182" height="184" viewBox="0 0 182 184" fill="none" xmlns="http://www.w3.org/2000/svg">
<path fill-rule="evenodd" clip-rule="evenodd" d="M143.974 52.6957C141.853 42.6029 139.006 33.8315 135.633 26.9351C133.156 21.878 130.406 17.8459 127.435 15.0888C124.647 12.4995 121.687 11.0549 118.588 11.0549C115.428 11.0549 112.41 12.5584 109.572 15.2459C107.015 17.6691 104.622 21.037 102.431 25.1905L107.122 24.4619C107.869 24.3458 108.569 24.8584 108.685 25.6048C108.801 26.3512 108.288 27.0512 107.542 27.1673L99.326 28.4405L94.9921 21.3477C94.5974 20.703 94.801 19.8602 95.4457 19.4655C96.0903 19.0727 96.9331 19.2763 97.3261 19.9191L99.8992 24.128C102.281 19.5727 104.905 15.8995 107.69 13.2602C111.105 10.0245 114.785 8.31738 118.588 8.31738C122.322 8.31738 125.937 9.96202 129.297 13.0816C132.474 16.0316 135.444 20.3245 138.09 25.7334C141.908 33.5333 145.074 43.6904 147.304 55.4332C146.233 54.4779 145.122 53.5654 143.974 52.6957ZM147.454 135.621C145.217 147.702 141.994 158.142 138.09 166.118C135.444 171.526 132.474 175.819 129.297 178.768C125.937 181.888 122.322 183.533 118.588 183.533C114.785 183.533 111.105 181.825 107.69 178.591C104.905 175.952 102.281 172.277 99.8992 167.723L97.3261 171.931C96.9331 172.575 96.0903 172.779 95.4457 172.385C94.801 171.991 94.5974 171.148 94.9921 170.503L99.326 163.41L107.542 164.684C108.288 164.799 108.801 165.499 108.685 166.246C108.568 166.992 107.869 167.504 107.122 167.388L102.431 166.661C104.622 170.814 107.015 174.181 109.572 176.604C112.41 179.292 115.428 180.796 118.588 180.796C121.687 180.796 124.647 179.35 127.435 176.762C130.406 174.004 133.156 169.972 135.633 164.915C139.094 157.841 141.999 148.793 144.138 138.369C145.279 137.497 146.387 136.58 147.454 135.621Z" fill="#A72699"/>
<path fill-rule="evenodd" clip-rule="evenodd" d="M65.3125 121.629C66.0678 121.625 66.6839 122.235 66.6874 122.99C66.6874 123.746 66.082 124.362 65.3267 124.366C60.7107 124.39 55.7964 124.324 54.3733 124.324C52.5626 124.324 50.7679 123.18 49.2643 120.927C46.3929 116.626 44.3625 107.974 44.3625 97.9943C44.3625 88.0141 46.3929 79.3617 49.2643 75.0617C50.7679 72.8081 52.5626 71.6653 54.3733 71.6653C55.7053 71.6653 58.9357 71.6153 63.016 71.6188C63.7696 71.6188 64.3838 72.2331 64.3821 72.9885C64.3821 73.7438 63.7678 74.3563 63.0124 74.3563C58.9356 74.351 55.7053 74.4009 54.3733 74.4009C53.7411 74.4009 53.1589 74.7456 52.5911 75.292C51.8321 76.0223 51.1393 77.0973 50.5072 78.4366C48.425 82.8473 47.1 89.9701 47.1 97.9942C47.1 106.018 48.425 113.141 50.5072 117.552C51.1393 118.891 51.8321 119.966 52.5911 120.696C53.1589 121.242 53.7411 121.587 54.3733 121.587C55.7946 121.587 60.7035 121.653 65.3125 121.629Z" fill="#FABD27"/>
<path fill-rule="evenodd" clip-rule="evenodd" d="M159.414 122.986C149.898 139.571 132.014 150.752 111.539 150.752C81.0962 150.752 56.3821 126.037 56.3821 95.5951C56.3821 71.5873 71.7534 51.141 93.1836 43.5714C93.8961 43.3196 94.6782 43.6928 94.93 44.4053C95.1818 45.1178 94.8068 45.8999 94.0962 46.1517C73.7284 53.3463 59.1177 72.7784 59.1177 95.5951C59.1177 124.526 82.6069 148.015 111.539 148.015C130.442 148.015 147.025 137.985 156.246 122.961C157.057 122.967 158.153 122.977 159.414 122.986ZM158.848 73.007C151.539 57.7409 137.057 46.5517 119.778 43.8196C119.032 43.7017 118.523 43 118.641 42.2553C118.758 41.5089 119.46 40.9982 120.205 41.116C138.823 44.0607 154.355 56.3338 161.858 72.9891C160.758 72.9931 159.746 72.9999 158.848 73.007Z" fill="#FABD27"/>
<path fill-rule="evenodd" clip-rule="evenodd" d="M172.991 121.076C172.97 121.878 172.784 122.537 172.448 123.025C171.936 123.775 171.087 124.296 169.725 124.324C164.416 124.431 156.989 124.324 155.182 124.324C153.373 124.324 151.579 123.18 150.075 120.927C147.204 116.626 145.173 107.975 145.173 97.9945C145.173 88.0143 147.204 79.3619 150.075 75.0619C151.579 72.8083 153.373 71.6655 155.182 71.6655C157.113 71.6655 163.022 71.5601 169.72 71.6655C171.089 71.6869 171.941 72.2119 172.459 72.9744C172.789 73.4619 172.975 74.1208 172.998 74.9208C171.982 73.7048 170.866 73.0333 169.698 73.0333C168.72 73.0333 167.78 73.503 166.904 74.369C161.413 74.3245 156.836 74.4012 155.182 74.4012C154.552 74.4012 153.97 74.7458 153.402 75.2923C152.643 76.0226 151.95 77.0976 151.318 78.4369C149.236 82.8476 147.909 89.9704 147.909 97.9945C147.909 106.019 149.236 113.142 151.318 117.553C151.95 118.892 152.643 119.966 153.402 120.696C153.97 121.242 154.552 121.587 155.182 121.587C156.686 121.587 162.088 121.662 166.909 121.624C167.784 122.487 168.721 122.956 169.698 122.956C170.864 122.956 171.977 122.287 172.991 121.076Z" fill="#FABD27"/>
<path fill-rule="evenodd" clip-rule="evenodd" d="M169.698 71.6655C171.507 71.6655 173.301 72.8084 174.805 75.0619C177.676 79.3619 179.707 88.0144 179.707 97.9945C179.707 107.975 177.676 116.626 174.805 120.927C173.301 123.18 171.507 124.324 169.698 124.324C167.889 124.324 166.092 123.18 164.589 120.927C161.717 116.626 159.687 107.975 159.687 97.9945C159.687 88.0144 161.717 79.3619 164.589 75.0619C166.092 72.8084 167.889 71.6655 169.698 71.6655ZM169.698 74.4012C169.067 74.4012 168.483 74.7459 167.916 75.2923C167.157 76.0226 166.466 77.0976 165.834 78.4369C163.75 82.8476 162.424 89.9704 162.424 97.9945C162.424 106.019 163.75 113.142 165.834 117.553C166.466 118.892 167.157 119.966 167.916 120.696C168.483 121.242 169.067 121.587 169.698 121.587C170.328 121.587 170.912 121.242 171.478 120.696C172.237 119.966 172.93 118.892 173.562 117.553C175.644 113.142 176.971 106.019 176.971 97.9945C176.971 89.9704 175.644 82.8476 173.562 78.4369C172.93 77.0976 172.237 76.0226 171.478 75.2923C170.912 74.7459 170.328 74.4012 169.698 74.4012Z" fill="#FABD27"/>
<path fill-rule="evenodd" clip-rule="evenodd" d="M162.393 90.0348C161.637 90.0348 161.025 89.4216 161.025 88.6662C161.025 87.9111 161.637 87.2979 162.393 87.2979C164.378 87.2979 166.237 88.2405 167.727 89.9077C169.727 92.1466 171.066 95.7462 171.066 99.8192C171.066 103.892 169.727 107.492 167.727 109.731C166.237 111.398 164.378 112.34 162.393 112.34C161.637 112.34 161.025 111.727 161.025 110.972C161.025 110.217 161.637 109.603 162.393 109.603C163.632 109.603 164.757 108.947 165.686 107.907C167.312 106.086 168.328 103.133 168.328 99.8192C168.328 96.5055 167.312 93.5525 165.686 91.731C164.757 90.6911 163.632 90.0348 162.393 90.0348Z" fill="#FABD27"/>
<path fill-rule="evenodd" clip-rule="evenodd" d="M121.543 92.2524C125.338 92.2524 128.418 95.333 128.418 99.1274C128.418 102.922 125.338 106.002 121.543 106.002C117.75 106.002 114.668 102.922 114.668 99.1274C114.668 95.333 117.75 92.2524 121.543 92.2524Z" fill="#3FBFBE"/>
<path fill-rule="evenodd" clip-rule="evenodd" d="M70.0221 92.2524C72.6184 92.2524 74.7257 95.333 74.7257 99.1274C74.7257 102.922 72.6184 106.002 70.0221 106.002C67.4274 106.002 65.3203 102.922 65.3203 99.1274C65.3203 95.333 67.4274 92.2524 70.0221 92.2524Z" fill="#3FBFBE"/>
<path fill-rule="evenodd" clip-rule="evenodd" d="M103.113 77.7154C102.42 83.2672 102.043 89.2505 102.043 95.487C102.043 112.851 104.966 128.26 109.509 137.806C110.963 140.856 112.57 143.292 114.313 144.956C115.866 146.439 117.506 147.29 119.231 147.29C119.986 147.29 120.6 147.903 120.6 148.658C120.6 149.414 119.986 150.027 119.231 150.027C115.781 150.027 112.438 147.745 109.57 143.484C103.515 134.484 99.3057 116.368 99.3057 95.487C99.3057 89.3627 99.6682 83.4761 100.332 77.9886H103.063L103.113 77.7154ZM103.609 61.303C105.247 55.6209 107.275 50.9013 109.57 47.4906C112.438 43.2299 115.781 40.9478 119.231 40.9478C119.986 40.9478 120.6 41.5602 120.6 42.3156C120.6 43.071 119.986 43.6834 119.231 43.6834C117.506 43.6834 115.866 44.5352 114.313 46.0174C112.57 47.6816 110.963 50.1173 109.509 53.1691C108.059 56.2173 106.773 59.8637 105.695 63.9816L105.728 63.8012L103.609 61.303Z" fill="#FABD27"/>
<path fill-rule="evenodd" clip-rule="evenodd" d="M83.5803 77.9886C82.9284 83.3422 82.5766 89.0916 82.5766 95.0759C82.5766 112.302 85.4999 127.589 90.0427 137.059C91.4927 140.085 93.1016 142.501 94.8427 144.151C96.398 145.623 98.0372 146.468 99.7641 146.468C100.519 146.468 101.134 147.081 101.134 147.836C101.134 148.591 100.519 149.205 99.7641 149.205C97.8444 149.205 95.9748 148.52 94.2016 147.189C91.7891 145.38 89.532 142.322 87.5748 138.243C82.9034 128.504 79.8391 112.792 79.8391 95.0759C79.8391 89.1011 80.1873 83.3547 80.8284 77.9886H83.5803ZM84.7927 58.9977C85.6355 56.3834 86.5677 54.0084 87.5748 51.9084C89.532 47.8299 91.7891 44.7727 94.2016 42.962C95.9748 41.6317 97.8444 40.9478 99.7641 40.9478C103.675 40.9478 107.455 43.8906 110.571 49.2763C110.948 49.9298 110.725 50.7673 110.071 51.1459C109.418 51.5245 108.58 51.3013 108.202 50.6477C105.703 46.3281 102.9 43.6834 99.7641 43.6834C98.0372 43.6834 96.398 44.5281 94.8427 46.0013C93.1016 47.6513 91.4927 50.0673 90.0427 53.0923C89.1909 54.8655 88.398 56.8423 87.6695 58.9977H84.7927Z" fill="#FABD27"/>
<path fill-rule="evenodd" clip-rule="evenodd" d="M98.9973 58.8835L100.999 57.7961C101.569 57.4853 102.278 57.6175 102.695 58.1121L106.771 62.9157C107.038 63.23 107.149 63.6496 107.072 64.055L104.406 78.2406C104.284 78.887 103.719 79.3567 103.062 79.3567H79.6348C79.2331 79.3567 78.851 79.1799 78.5902 78.8727L74.5153 74.0692C74.2492 73.7549 74.1384 73.337 74.2153 72.9335C74.2903 72.5281 74.5438 72.1781 74.9064 71.9817L76.2242 71.2656L76.0349 73.0013L78.1117 73.3549C77.8402 73.5013 77.6921 73.5817 77.6921 73.5817L80.2689 76.6192H101.926L104.261 64.1889C104.261 64.1889 102.042 61.5728 101.465 60.8907L101.819 58.8371L98.9973 58.8835Z" fill="#A72699"/>
<path fill-rule="evenodd" clip-rule="evenodd" d="M74.2319 72.8529L77.7676 58.6672C77.9193 58.0565 78.4675 57.6279 79.0961 57.6279H101.653C102.06 57.6279 102.446 57.8101 102.707 58.1244C102.966 58.4369 103.073 58.8494 102.998 59.2494L100.332 73.4368C100.21 74.0832 99.646 74.5529 98.9871 74.5529H75.5604C75.139 74.5529 74.7408 74.3582 74.4818 74.0261C74.2229 73.6939 74.1301 73.2618 74.2319 72.8529ZM77.3122 71.8154H97.8514L100.003 60.3654H80.1639L77.3122 71.8154Z" fill="#A72699"/>
<path fill-rule="evenodd" clip-rule="evenodd" d="M81.8724 67.4583C81.1171 67.4583 80.5046 66.8458 80.5046 66.0905C80.5046 65.3351 81.1171 64.7227 81.8724 64.7227H95.3402C96.0956 64.7227 96.708 65.3351 96.708 66.0905C96.708 66.8458 96.0956 67.4583 95.3402 67.4583H81.8724Z" fill="#A72699"/>
<path fill-rule="evenodd" clip-rule="evenodd" d="M82.8717 116.758C82.1164 116.758 81.5039 116.145 81.5039 115.39C81.5039 114.634 82.1164 114.021 82.8717 114.021H101.552C102.307 114.021 102.92 114.634 102.92 115.39C102.92 116.145 102.307 116.758 101.552 116.758H82.8717Z" fill="#FABD27"/>
<path fill-rule="evenodd" clip-rule="evenodd" d="M83.6018 122.022C82.8465 122.022 82.2339 121.408 82.2339 120.653C82.2339 119.898 82.8465 119.285 83.6018 119.285H102.229C102.984 119.285 103.596 119.898 103.596 120.653C103.596 121.408 102.984 122.022 102.229 122.022H83.6018Z" fill="#FABD27"/>
<path fill-rule="evenodd" clip-rule="evenodd" d="M85.0853 127.767C84.3299 127.767 83.7156 127.154 83.7156 126.399C83.7156 125.643 84.3299 125.03 85.0853 125.03H103.873C104.628 125.03 105.24 125.643 105.24 126.399C105.24 127.154 104.628 127.767 103.873 127.767H85.0853Z" fill="#FABD27"/>
<path fill-rule="evenodd" clip-rule="evenodd" d="M87.2101 133.208C86.4547 133.208 85.8423 132.595 85.8423 131.84C85.8423 131.084 86.4547 130.471 87.2101 130.471H105.673C106.426 130.471 107.04 131.084 107.04 131.84C107.04 132.595 106.426 133.208 105.673 133.208H87.2101Z" fill="#FABD27"/>
<path fill-rule="evenodd" clip-rule="evenodd" d="M43.1199 156.582H45.8556V178.749H68.5519V181.484H43.1199V156.582Z" fill="#3FBFBE"/>
<path fill-rule="evenodd" clip-rule="evenodd" d="M45.8556 27.0958H43.1199V2.19238H68.5519V4.92808H45.8556V27.0958Z" fill="#3FBFBE"/>
<path fill-rule="evenodd" clip-rule="evenodd" d="M178.34 156.582H181.075V182.279H155.642V179.544H178.34V156.582Z" fill="#3FBFBE"/>
<path fill-rule="evenodd" clip-rule="evenodd" d="M181.075 27.0958H178.34V4.92808H155.642V2.19238H181.075V27.0958Z" fill="#3FBFBE"/>
<path fill-rule="evenodd" clip-rule="evenodd" d="M29.7427 27.8568L27.2427 25.8657V8.38905C27.2427 8.33373 27.1985 8.28726 27.1409 8.28726H0L2.76789 5.78906H29.7427V27.8568Z" fill="#FABD27"/>
<path fill-rule="evenodd" clip-rule="evenodd" d="M15.3613 0L17.8614 1.79821V18.5624L15.3613 16.7803V0Z" fill="#FABD27"/>
<path fill-rule="evenodd" clip-rule="evenodd" d="M9.12652 32.5123C9.18143 32.5123 9.22696 32.4658 9.22696 32.4105V18.3891L11.2948 17.3784L31.0073 32.7301L30.2251 35.0105H2.83057V32.5123H9.12652ZM11.7265 32.4105C11.7265 32.4658 11.7733 32.5123 11.8282 32.5123H26.3638C26.4067 32.5123 26.4442 32.4838 26.4589 32.4426C26.4737 32.4015 26.4589 32.3569 26.4255 32.3301L11.8916 21.0105C11.8608 20.9855 11.8179 20.982 11.7844 20.9998C11.7483 21.0159 11.7269 21.0517 11.7269 21.0909L11.7265 32.4105Z" fill="#FABD27"/>
<path fill-rule="evenodd" clip-rule="evenodd" d="M27.2202 46.9709C27.2349 46.9531 27.2429 46.9298 27.2429 46.9066V38.1978H29.743V47.8102L25.1751 53.5923H7.52528L2.83057 47.6495V38.1978H5.3306V46.7459C5.3306 46.7691 5.34399 46.7905 5.35203 46.8085L8.70558 51.0549C8.72299 51.0799 8.7538 51.0941 8.7846 51.0941H23.9148C23.947 51.0941 23.9751 51.0798 23.9952 51.0549L27.1309 47.0835L27.2202 46.9709Z" fill="#FABD27"/>
<path fill-rule="evenodd" clip-rule="evenodd" d="M8.4234 141.126H29.743V143.625H7.09309L2.83057 137.719V132.27L7.21095 126.201H13.5467L15.0788 128.7H12.252H8.54125C8.50911 128.7 8.47831 128.716 8.45956 128.742L5.34881 133.052C5.33542 133.069 5.3314 133.09 5.3314 133.111V136.879C5.3314 136.9 5.3314 136.921 5.34881 136.938L8.3417 141.083L8.4234 141.126Z" fill="#A72699"/>
<path fill-rule="evenodd" clip-rule="evenodd" d="M27.2428 76.583H29.7428V88.9767L25.1822 94.859H19.634L14.9465 88.8131V79.183C14.9465 79.1277 14.9023 79.0812 14.846 79.0812H2.62109V76.583H17.4461V87.9231C17.4461 87.9456 17.4595 87.9675 17.4675 87.9853L20.8282 92.3203C20.8483 92.345 20.8764 92.3595 20.9085 92.3595H23.9068C23.9389 92.3595 23.9671 92.345 23.9872 92.3203L27.221 88.1487C27.2357 88.131 27.2424 88.109 27.2424 88.0865L27.2428 76.583Z" fill="#FABD27"/>
<path fill-rule="evenodd" clip-rule="evenodd" d="M27.2739 99.0645L29.772 101.125V122.393L29.7359 128.7H18.9734L15.1163 122.588V117.563C15.1163 117.508 15.0721 117.462 15.0145 117.462H2.83057V114.963H17.6162V121.836C17.6162 121.855 17.6162 121.874 17.6323 121.89L20.3216 126.153C20.3416 126.182 20.3738 126.2 20.4073 126.2H27.1501C27.205 126.2 27.2506 126.155 27.2506 126.1L27.2734 122.386L27.2739 99.0645Z" fill="#A72699"/>
<path fill-rule="evenodd" clip-rule="evenodd" d="M16.197 64.085C16.2304 64.085 16.2613 64.069 16.2813 64.0422L21.7259 56.2012L23.6795 56.0083L29.7723 61.8761V73.4457H27.2741V62.9833C27.2741 62.9547 27.2608 62.9297 27.242 62.91L23.0545 58.8761C23.033 58.8564 23.0049 58.8457 22.9741 58.8493C22.9433 58.8507 22.9165 58.8671 22.9005 58.8922L17.2541 67.0207H15.1397L9.49334 58.8922C9.47727 58.8671 9.45048 58.8511 9.41968 58.8493C9.39155 58.8453 9.36075 58.856 9.33932 58.8761L5.15193 62.91C5.13184 62.9297 5.12113 62.9546 5.12113 62.9833V73.4457H2.62109V61.8761L8.71401 56.0083L10.6675 56.2012L15.9603 63.8208L16.1122 64.0386C16.1296 64.0671 16.1621 64.085 16.197 64.085Z" fill="#FABD27"/>
<path fill-rule="evenodd" clip-rule="evenodd" d="M15.3613 76.8369L17.3631 78.3351L5.35069 94.3749C5.33729 94.3924 5.3306 94.4138 5.3306 94.4355V110.492L2.83057 108.889V93.5698L15.3613 76.8369Z" fill="#FABD27"/>
<path fill-rule="evenodd" clip-rule="evenodd" d="M29.7423 76.583V79.0812H22.012V76.583H29.7423Z" fill="#FABD27"/>
<path fill-rule="evenodd" clip-rule="evenodd" d="M2.83057 162.93H29.743V165.43H2.83057V162.93Z" fill="#A72699"/>
<path fill-rule="evenodd" clip-rule="evenodd" d="M26.5953 145.945L7.77932 160.158L3.0293 160.214L21.9204 145.945H26.5953Z" fill="#A72699"/>
<path fill-rule="evenodd" clip-rule="evenodd" d="M18.0433 175.461C18.0112 175.442 17.9723 175.441 17.9402 175.46C17.9094 175.478 17.8906 175.511 17.8906 175.548V182.11H2.76935L0.00146484 179.61H15.2889C15.3465 179.61 15.3907 179.565 15.3907 179.509V164.864H17.8906V172.393C17.8906 172.428 17.908 172.461 17.9388 172.479L29.7442 179.597L29.775 182.534L18.0433 175.461Z" fill="#A72699"/>
<path fill-rule="evenodd" clip-rule="evenodd" d="M9.13965 103.419V98.9517H24.0824V103.419H21.5825V101.552C21.5825 101.497 21.5383 101.451 21.482 101.451H11.7392C11.6843 101.451 11.6374 101.497 11.6374 101.552V103.419H9.13965ZM24.0824 106.11V110.577H9.13965V106.11H11.6378V107.976C11.6378 108.032 11.6847 108.078 11.7396 108.078H21.4824C21.5374 108.078 21.5829 108.032 21.5829 107.976V106.11H24.0824Z" fill="#3FBFBE"/>
</svg>
