<svg width="11" height="12" viewBox="0 0 11 12" fill="none" xmlns="http://www.w3.org/2000/svg">
<g clip-path="url(#clip0_835_2917)">
<path d="M3.31964 0.414844L3.14286 0.75H0.785714C0.351116 0.75 0 1.08516 0 1.5C0 1.91484 0.351116 2.25 0.785714 2.25H10.2143C10.6489 2.25 11 1.91484 11 1.5C11 1.08516 10.6489 0.75 10.2143 0.75H7.85714L7.68036 0.414844C7.54777 0.159375 7.27522 0 6.97813 0H4.02187C3.72478 0 3.45223 0.159375 3.31964 0.414844ZM10.2143 3H0.785714L1.30625 10.9453C1.34554 11.5383 1.86116 12 2.48237 12H8.51763C9.13884 12 9.65446 11.5383 9.69375 10.9453L10.2143 3Z" fill="#FF5555"/>
</g>
<defs>
<clipPath id="clip0_835_2917">
<rect width="11" height="12" fill="white"/>
</clipPath>
</defs>
</svg>
