<svg width="59" height="58" viewBox="0 0 59 58" fill="none" xmlns="http://www.w3.org/2000/svg">
<path fill-rule="evenodd" clip-rule="evenodd" d="M9.96002 19.112V38.01L28.858 47.46L47.756 38.01V19.112L28.858 28.802L9.96002 19.112Z" stroke="#1D1D1B" stroke-width="4" stroke-miterlimit="1.5" stroke-linecap="round"/>
<path d="M9.96002 19.112L28.858 9.664L47.756 19.112" stroke="#1D1D1B" stroke-width="4" stroke-miterlimit="1.5" stroke-linecap="round"/>
<path d="M28.858 47.46V35.282" stroke="#1D1D1B" stroke-width="4" stroke-miterlimit="1.5" stroke-linecap="round" stroke-linejoin="round"/>
<path d="M19.41 35.902C20.4273 35.902 21.252 34.7308 21.252 33.286C21.252 31.8412 20.4273 30.67 19.41 30.67C18.3927 30.67 17.568 31.8412 17.568 33.286C17.568 34.7308 18.3927 35.902 19.41 35.902Z" fill="#1D1D1B"/>
<path fill-rule="evenodd" clip-rule="evenodd" d="M24.118 19.112C24.118 20.13 22.946 20.956 21.502 20.956C20.058 20.956 18.886 20.13 18.886 19.112C18.886 18.096 20.058 17.27 21.502 17.27C22.946 17.27 24.118 18.096 24.118 19.112Z" fill="#1D1D1B"/>
<path fill-rule="evenodd" clip-rule="evenodd" d="M31.122 19.112C31.122 20.13 29.95 20.956 28.506 20.956C27.062 20.956 25.89 20.13 25.89 19.112C25.89 18.096 27.062 17.27 28.506 17.27C29.95 17.27 31.122 18.096 31.122 19.112Z" fill="#1D1D1B"/>
<path fill-rule="evenodd" clip-rule="evenodd" d="M38.126 19.112C38.126 20.13 36.954 20.956 35.51 20.956C34.066 20.956 32.894 20.13 32.894 19.112C32.894 18.096 34.066 17.27 35.51 17.27C36.954 17.27 38.126 18.096 38.126 19.112Z" fill="#1D1D1B"/>
<path d="M35.484 39.246C36.5013 39.246 37.326 38.0748 37.326 36.63C37.326 35.1852 36.5013 34.014 35.484 34.014C34.4667 34.014 33.642 35.1852 33.642 36.63C33.642 38.0748 34.4667 39.246 35.484 39.246Z" fill="#1D1D1B"/>
<path d="M41.13 32.558C42.1473 32.558 42.972 31.3868 42.972 29.942C42.972 28.4972 42.1473 27.326 41.13 27.326C40.1127 27.326 39.288 28.4972 39.288 29.942C39.288 31.3868 40.1127 32.558 41.13 32.558Z" fill="#1D1D1B"/>
</svg>
